# xmcd CD database file
#
# Track frame offsets:
#	150
#	13547
#	39457
#	52950
#	65184
#	77102
#	91547
#	106483
#	119893
#	130956
#	141761
#	155332
#	168757
#	181996
#
# Disc length: 2609 seconds
#
# Revision: 0
# Processed by: cddbd v1.5.2PL0 Copyright (c) Steve Scherf et al.
# Submitted via: Feurio! 1.68 - http://www.feurio.com
#
DISCID=b70a2f0e
DTITLE=Various Artist - Keep Calm And Feel The Blues [CD2]
DYEAR=2013
DGENRE=Blues
TTITLE0=Robert Johnson - Sweet Home Chicago
TTITLE1=Son House - Preachin' The Blues
TTITLE2=Albert King - Bad Luck Blues
TTITLE3=Elmore James - The Sky Is Crying
TTITLE4=Jeff Beck and All Stars - Steelin'
TTITLE5=Ray Charles - Blues Is My Middle Name
TTITLE6=Willie Dixon - Pain In My Heart
TTITLE7=Nina Simone - Central Park Blues
TTITLE8=Bo Diddley - Diddy Wah Diddy
TTITLE9=Johnny "Guitar" Watson - Highway 60
TTITLE10=Joe Liggins - Pink Champagne
TTITLE11=Bo Carter - All Around Man
TTITLE12=Mississippi John Hurt - Stack O'Lee Blues
TTITLE13=Leadbelly - Where Did you Sleep Last Night
EXTD=
EXTT0=
EXTT1=
EXTT2=
EXTT3=
EXTT4=
EXTT5=
EXTT6=
EXTT7=
EXTT8=
EXTT9=
EXTT10=
EXTT11=
EXTT12=
EXTT13=
PLAYORDER=
